<svg xmlns="http://www.w3.org/2000/svg" viewBox="0 0 16 16" shape-rendering="crispEdges">
<rect x="2" y="0" width="12" height="1" fill="#1c1830"/>
<rect x="1" y="1" width="14" height="1" fill="#1c1830"/>
<rect x="0" y="2" width="7" height="1" fill="#1c1830"/>
<rect x="7" y="2" width="1" height="1" fill="#ffd699"/>
<rect x="8" y="2" width="1" height="1" fill="#ffa500"/>
<rect x="9" y="2" width="7" height="1" fill="#1c1830"/>
<rect x="0" y="3" width="6" height="1" fill="#1c1830"/>
<rect x="6" y="3" width="4" height="1" fill="#ffa500"/>
<rect x="10" y="3" width="6" height="1" fill="#1c1830"/>
<rect x="0" y="4" width="6" height="1" fill="#1c1830"/>
<rect x="6" y="4" width="4" height="1" fill="#ffa500"/>
<rect x="10" y="4" width="6" height="1" fill="#1c1830"/>
<rect x="0" y="5" width="7" height="1" fill="#1c1830"/>
<rect x="7" y="5" width="2" height="1" fill="#ffa500"/>
<rect x="9" y="5" width="7" height="1" fill="#1c1830"/>
<rect x="0" y="6" width="7" height="1" fill="#1c1830"/>
<rect x="7" y="6" width="2" height="1" fill="#ff2e7e"/>
<rect x="9" y="6" width="7" height="1" fill="#1c1830"/>
<rect x="0" y="7" width="7" height="1" fill="#1c1830"/>
<rect x="7" y="7" width="2" height="1" fill="#ff2e7e"/>
<rect x="9" y="7" width="7" height="1" fill="#1c1830"/>
<rect x="0" y="8" width="7" height="1" fill="#1c1830"/>
<rect x="7" y="8" width="2" height="1" fill="#ff2e7e"/>
<rect x="9" y="8" width="7" height="1" fill="#1c1830"/>
<rect x="0" y="9" width="7" height="1" fill="#1c1830"/>
<rect x="7" y="9" width="2" height="1" fill="#ff2e7e"/>
<rect x="9" y="9" width="7" height="1" fill="#1c1830"/>
<rect x="0" y="10" width="4" height="1" fill="#1c1830"/>
<rect x="4" y="10" width="8" height="1" fill="#3effe2"/>
<rect x="12" y="10" width="4" height="1" fill="#1c1830"/>
<rect x="0" y="11" width="3" height="1" fill="#1c1830"/>
<rect x="3" y="11" width="10" height="1" fill="#3effe2"/>
<rect x="13" y="11" width="3" height="1" fill="#1c1830"/>
<rect x="0" y="12" width="3" height="1" fill="#1c1830"/>
<rect x="3" y="12" width="10" height="1" fill="#3effe2"/>
<rect x="13" y="12" width="3" height="1" fill="#1c1830"/>
<rect x="0" y="13" width="3" height="1" fill="#1c1830"/>
<rect x="3" y="13" width="10" height="1" fill="#2fd9c9"/>
<rect x="13" y="13" width="3" height="1" fill="#1c1830"/>
<rect x="1" y="14" width="14" height="1" fill="#1c1830"/>
<rect x="2" y="15" width="12" height="1" fill="#1c1830"/>
</svg>
